<svg width="36" height="36" viewBox="0 0 36 36" fill="none" xmlns="http://www.w3.org/2000/svg">
<circle cx="18" cy="18" r="18" fill="#FD687A"/>
<path d="M24.0884 24.9875C23.2035 24.3949 22.1986 24.1427 21.1727 23.9604C21.1277 23.9513 21.0587 23.9877 21.0228 24.0273C20.6928 24.401 20.3658 24.7778 20.0389 25.1546C20.0209 25.1759 20.0089 25.2002 19.9909 25.2306C20.7438 25.3157 21.4757 25.4372 22.1896 25.6651C22.6426 25.811 23.0895 25.9751 23.4555 26.3002C23.8574 26.6558 23.8544 27.0356 23.4555 27.3942C23.1825 27.6403 22.8525 27.7892 22.5136 27.9138C21.2957 28.3575 20.0299 28.4972 18.749 28.5459C17.9091 28.5763 17.0692 28.558 16.2323 28.4638C15.4134 28.3727 14.6005 28.2389 13.8175 27.9715C13.3916 27.8257 12.9716 27.6555 12.6447 27.3243C12.3447 27.0204 12.3477 26.6831 12.6417 26.3762C12.6927 26.3215 12.7497 26.2729 12.8097 26.2273C13.2266 25.9143 13.7036 25.7289 14.1985 25.6104C14.8614 25.4524 15.5334 25.3309 16.1963 25.1941C15.8633 24.8082 15.5154 24.401 15.1644 24.0029C15.1374 23.9726 15.0654 23.9574 15.0234 23.9665C14.5045 24.088 13.9795 24.1883 13.4696 24.3433C12.8367 24.5347 12.2397 24.8204 11.7358 25.2701C10.8239 26.0814 10.7489 27.3638 11.5708 28.2663C11.9878 28.7221 12.5187 29.0047 13.0826 29.2235C14.4445 29.7462 15.8693 29.9133 17.3092 29.9802C18.389 30.0288 19.4659 29.9802 20.5398 29.8343C21.3527 29.7249 22.1536 29.5669 22.9275 29.2843C23.5575 29.0533 24.1544 28.7616 24.6134 28.2511C25.1443 27.6616 25.2973 26.9718 25.0603 26.2091C24.9013 25.6682 24.5354 25.2883 24.0884 24.9875Z" fill="white"/>
<path d="M24.9976 11.4424C24.3737 8.73183 22.091 6.57432 19.3763 6.11851C19.1003 6.07293 18.8243 6.0395 18.5484 6C18.2484 6 17.9484 6 17.6485 6C17.6095 6.00912 17.5735 6.02431 17.5345 6.02735C16.7096 6.09116 15.9237 6.2978 15.1707 6.64117C11.8051 8.18182 10.1853 12.0532 11.4781 15.5234C12.0331 17.0154 12.819 18.389 13.7039 19.7047C14.8588 21.4186 16.1576 23.017 17.5465 24.5363C17.7295 24.7369 17.9154 24.9283 18.1194 25.1441C18.1614 25.0894 18.1914 25.0468 18.2244 25.0104C18.7733 24.3996 19.3373 23.804 19.8682 23.178C21.683 21.0296 23.3268 18.7718 24.4847 16.1737C25.1686 14.6422 25.3726 13.0772 24.9976 11.4424ZM19.0223 18.2492C19.0223 18.3829 18.9563 18.4892 18.8243 18.5682C18.6923 18.6473 18.5394 18.6868 18.3654 18.6868C18.1824 18.6868 18.0294 18.6473 17.9004 18.5682C17.7714 18.4892 17.7085 18.3829 17.7085 18.2492V11.2692L17.2735 11.8222C17.1895 11.9073 17.0995 11.9468 17.0005 11.9468C16.8775 11.9468 16.7726 11.8891 16.6856 11.7767C16.5986 11.6642 16.5566 11.5396 16.5566 11.4059C16.5566 11.1871 16.6436 11.017 16.8176 10.8924L18.1074 9.63738C18.1974 9.54621 18.3084 9.50063 18.4434 9.50063C18.5934 9.50063 18.7253 9.54014 18.8453 9.61914C18.9653 9.69815 19.0253 9.80451 19.0253 9.93821V18.2492H19.0223Z" fill="white"/>
</svg>
