<svg width="36" height="36" viewBox="0 0 36 36" fill="none" xmlns="http://www.w3.org/2000/svg">
<circle cx="18" cy="18" r="18" fill="#7A79A9"/>
<path d="M24.0324 24.9894C23.1359 24.3969 22.1179 24.1447 21.0787 23.9624C21.0331 23.9532 20.9632 23.9897 20.9268 24.0292C20.5925 24.403 20.2613 24.7798 19.93 25.1566C19.9118 25.1778 19.8997 25.2022 19.8814 25.2325C20.6442 25.3176 21.3856 25.4392 22.1088 25.6671C22.5677 25.8129 23.0204 25.977 23.3912 26.3022C23.7984 26.6577 23.7953 27.0376 23.3912 27.3961C23.1146 27.6423 22.7804 27.7912 22.437 27.9158C21.2033 28.3594 19.9209 28.4992 18.6234 28.5478C17.7725 28.5782 16.9217 28.56 16.0739 28.4658C15.2443 28.3746 14.4208 28.2409 13.6277 27.9735C13.1962 27.8276 12.7708 27.6575 12.4395 27.3262C12.1357 27.0224 12.1387 26.6851 12.4365 26.3782C12.4882 26.3235 12.5459 26.2748 12.6067 26.2293C13.0291 25.9163 13.5122 25.7309 14.0136 25.6124C14.6852 25.4544 15.3659 25.3328 16.0374 25.1961C15.7001 24.8102 15.3476 24.403 14.9921 24.0049C14.9647 23.9745 14.8918 23.9593 14.8493 23.9684C14.3236 24.09 13.7918 24.1903 13.2752 24.3452C12.634 24.5367 12.0293 24.8223 11.5188 25.2721C10.595 26.0834 10.5191 27.3657 11.3517 28.2683C11.7741 28.7241 12.3119 29.0067 12.8832 29.2255C14.2628 29.7481 15.7062 29.9153 17.1648 29.9821C18.2587 30.0307 19.3496 29.9821 20.4375 29.8362C21.261 29.7268 22.0724 29.5688 22.8564 29.2862C23.4945 29.0553 24.0992 28.7636 24.5641 28.2531C25.102 27.6635 25.257 26.9737 25.0169 26.211C24.8558 25.6701 24.4851 25.2903 24.0324 24.9894Z" fill="white"/>
<path d="M24.9531 11.4424C24.321 8.73183 22.0086 6.57432 19.2585 6.11851C18.9789 6.07293 18.6994 6.0395 18.4198 6C18.1159 6 17.8121 6 17.5082 6C17.4687 6.00912 17.4322 6.02431 17.3927 6.02735C16.5571 6.09116 15.7609 6.2978 14.9982 6.64117C11.5887 8.18182 9.94779 12.0532 11.2575 15.5234C11.8197 17.0154 12.6158 18.389 13.5122 19.7047C14.6822 21.4186 15.9979 23.017 17.4049 24.5363C17.5902 24.7369 17.7786 24.9283 17.9853 25.1441C18.0278 25.0894 18.0582 25.0468 18.0916 25.0104C18.6477 24.3996 19.219 23.804 19.7569 23.178C21.5953 21.0296 23.2605 18.7718 24.4335 16.1737C25.1263 14.6422 25.333 13.0772 24.9531 11.4424ZM20.708 19.0818C20.6199 19.2033 20.5196 19.2641 20.4041 19.2641H15.9645C15.8308 19.2641 15.7001 19.2216 15.5725 19.1395C15.4449 19.0575 15.378 18.9511 15.378 18.8265V17.611C15.378 17.2342 15.5148 16.8665 15.7883 16.508C16.0617 16.1494 16.399 15.8212 16.7971 15.5295L18.0035 14.6513C18.4046 14.3596 18.745 14.0375 19.0276 13.688C19.3071 13.3386 19.4469 12.9861 19.4469 12.6366C19.4469 12.2872 19.3314 11.9802 19.1005 11.7159C18.8695 11.4515 18.5322 11.3208 18.0886 11.3208C17.7118 11.3208 17.4079 11.4242 17.1709 11.6338C16.9369 11.8405 16.8184 12.1474 16.8184 12.5546C16.8184 12.6883 16.7546 12.8037 16.6239 12.904C16.4932 13.0043 16.3261 13.0529 16.1164 13.0529C15.7153 13.0529 15.5148 12.8068 15.5148 12.3115C15.5148 11.6581 15.767 11.1264 16.2745 10.7101C16.7819 10.2968 17.3866 10.0901 18.0886 10.0901C18.8331 10.0901 19.4682 10.3241 19.9908 10.7891C20.5135 11.254 20.7748 11.8587 20.7748 12.5971C20.7748 13.0985 20.6351 13.5695 20.3555 14.0071C20.0759 14.4447 19.7356 14.8184 19.3375 15.1223C18.9394 15.4262 18.5414 15.7149 18.1463 15.9884C17.7482 16.2588 17.4109 16.5323 17.1283 16.8088C16.8488 17.0853 16.709 17.3527 16.709 17.611V18.0881H20.398C20.5165 18.0881 20.6168 18.1459 20.7049 18.2583C20.7931 18.3707 20.8356 18.5075 20.8356 18.6655C20.8386 18.8205 20.7961 18.9602 20.708 19.0818Z" fill="white"/>
</svg>
