<svg width="36" height="36" viewBox="0 0 36 36" fill="none" xmlns="http://www.w3.org/2000/svg">
<circle cx="18" cy="18" r="18" fill="#FD687A"/>
<mask id="mask0_9843_64389" style="mask-type:alpha" maskUnits="userSpaceOnUse" x="0" y="0" width="36" height="36">
<circle cx="18" cy="18" r="18" fill="#7A79A9"/>
</mask>
<g mask="url(#mask0_9843_64389)">
<rect x="5" y="27" width="26" height="2" fill="white"/>
<path d="M7 5H29L31 10H5L7 5Z" fill="white"/>
<rect x="7" y="30" width="22" height="10" fill="white"/>
<rect x="29" y="11" width="15" height="2" transform="rotate(90 29 11)" fill="white"/>
<rect x="9" y="11" width="15" height="2" transform="rotate(90 9 11)" fill="white"/>
<path d="M17.1345 21.6893C16.9834 21.6893 16.8391 21.6673 16.7058 21.624C16.2853 21.4875 16.0242 21.1737 15.8144 20.9216C15.7244 20.8136 15.6314 20.7018 15.5605 20.6502C15.511 20.6142 15.4327 20.5774 15.3464 20.541L14.6614 23.3242L16.1435 23.0552L17.3314 23.9813L17.929 21.5533C17.7258 21.604 17.3817 21.6893 17.1345 21.6893Z" fill="white"/>
<path d="M21.0628 20.5566C20.9765 20.5931 20.8982 20.6298 20.8487 20.6658C20.7777 20.7174 20.6847 20.8292 20.5948 20.9373C20.385 21.1894 20.1238 21.5032 19.7034 21.6397C19.57 21.683 19.4258 21.7049 19.2747 21.7049C19.0276 21.7049 18.6834 21.6196 18.4802 21.569L19.0778 23.9969L20.2657 23.0708L21.7478 23.3398L21.0628 20.5566Z" fill="white"/>
<path d="M21.9971 17C21.9971 16.569 21.6057 16.2078 21.4846 15.8188C21.3591 15.4158 21.4678 14.8845 21.2336 14.549C20.9972 14.2101 20.4774 14.1549 20.1524 13.9083C19.8307 13.6641 19.621 13.1643 19.2345 13.0335C19.1642 13.0097 19.0911 13 19.016 13C18.6932 13 18.334 13.1789 17.9986 13.1789C17.6632 13.1789 17.3039 13 16.9811 13C16.906 13 16.833 13.0097 16.7626 13.0335C16.3761 13.1644 16.1664 13.6641 15.8447 13.9083C15.5197 14.1549 15 14.2101 14.7635 14.549C14.5293 14.8845 14.638 15.4158 14.5125 15.8188C14.3914 16.2077 14 16.569 14 17C14 17.431 14.3914 17.7923 14.5125 18.1812C14.638 18.5842 14.5293 19.1155 14.7635 19.451C15 19.7899 15.5197 19.8451 15.8447 20.0917C16.1664 20.3359 16.3761 20.8357 16.7627 20.9665C16.833 20.9903 16.9061 21 16.9811 21C17.3039 21 17.6632 20.8211 17.9986 20.8211C18.3339 20.8211 18.6933 21 19.0161 21C19.0911 21 19.1641 20.9903 19.2345 20.9665C19.621 20.8357 19.8307 20.3359 20.1525 20.0917C20.4774 19.8451 20.9972 19.7899 21.2337 19.451C21.4678 19.1155 21.3591 18.5842 21.4846 18.1812C21.6057 17.7923 21.9971 17.431 21.9971 17ZM17.9986 19.7394C16.55 19.7394 15.3715 18.5105 15.3715 17C15.3715 15.4895 16.55 14.2606 17.9986 14.2606C19.4472 14.2606 20.6257 15.4895 20.6257 17C20.6257 18.5105 19.4472 19.7394 17.9986 19.7394Z" fill="white"/>
<path d="M18 19.4C19.3255 19.4 20.4 18.3255 20.4 17C20.4 15.6745 19.3255 14.6 18 14.6C16.6745 14.6 15.6 15.6745 15.6 17C15.6 18.3255 16.6745 19.4 18 19.4Z" fill="white" stroke="#FD687A" stroke-width="0.8"/>
</g>
</svg>
