<svg width="36" height="36" viewBox="0 0 36 36" fill="none" xmlns="http://www.w3.org/2000/svg">
<path d="M18 0C7.8 0 0 8.4 0 18C0 28.2 7.8 36 18 36C27.6 36 36 28.2 36 18C36 7.8 28.2 0 18 0Z" fill="black"/>
<path fill-rule="evenodd" clip-rule="evenodd" d="M29.289 14.6167L31.1623 14.9667C31.6306 15.0833 32.0989 15.55 31.9818 16.1333V19.9833C31.9818 20.5667 31.6306 21.0333 31.0452 21.15L29.1719 21.5C28.9378 22.2 28.5865 22.9 28.2353 23.6L29.289 25.1167C29.6402 25.5833 29.5232 26.2833 29.1719 26.6333L26.4791 29.3167C26.1279 29.6667 25.4254 29.7833 24.9571 29.4333L23.4351 28.3833L23.435 28.3833C22.7326 28.7333 22.0301 29.0833 21.2106 29.3167L20.9764 31.0667C20.8593 31.5333 20.391 32 19.8056 32H15.942C15.3566 32 14.8883 31.65 14.7712 31.0667L14.5371 29.3167C13.8346 29.0833 13.1322 28.7333 12.4297 28.3833L12.4297 28.3833L11.0247 29.4333C10.5564 29.7833 9.85393 29.6667 9.5027 29.3167L6.80989 26.6333C6.34157 26.1667 6.34157 25.5833 6.69281 25.1167L7.62944 23.7167C7.54689 23.5247 7.46435 23.3393 7.38332 23.1572C7.11958 22.5645 6.87194 22.0081 6.69281 21.3833L4.93663 21.15C4.46831 21.0333 4 20.5667 4 19.9833V16.1333C4 15.55 4.35124 15.0833 4.93663 14.9667L6.69281 14.7333C6.92697 13.9167 7.16112 13.1 7.62944 12.4L6.57573 11C6.2245 10.5333 6.34157 9.83333 6.69281 9.48333L9.38562 6.8C9.85393 6.33333 10.4393 6.33333 10.9076 6.68333L12.3126 7.73333C13.0151 7.26667 13.8346 6.91667 14.5371 6.8L14.7712 4.93333C14.8883 4.46667 15.3566 4 15.942 4H19.8056C20.391 4 20.8593 4.35 20.9764 4.93333L21.3276 6.8C22.1472 7.03333 22.9667 7.38333 23.6692 7.73333L25.1912 6.68333C25.6596 6.33333 26.362 6.45 26.7133 6.8L29.4061 9.48333C29.7573 9.95 29.8744 10.5333 29.5232 11L28.3524 12.5167C28.8207 13.2167 29.0548 13.9167 29.289 14.6167ZM20.8593 20.6833C22.4984 21.2667 23.7863 22.2 24.84 23.4833C26.0108 21.9667 26.7133 20.1 27.0645 18.1167C27.0645 13.2167 23.2009 9.36667 18.4007 9.36667C13.4834 9.36667 9.61978 13.3333 9.61978 18.1167C9.61978 20.1 10.3222 21.9667 11.493 23.4833C12.4297 22.2 13.8346 21.2667 15.4737 20.6833C15.5908 20.5667 15.8249 20.5667 16.0591 20.6833C16.6445 21.0333 17.464 21.15 18.1665 21.15C18.869 21.15 19.5715 20.9167 20.2739 20.6833C20.3068 20.6833 20.3489 20.6741 20.3977 20.6635C20.5225 20.6362 20.6909 20.5994 20.8593 20.6833ZM14.5312 15.7734C14.5312 13.9068 16.0533 12.2734 18.0436 12.2734C20.0339 12.2734 21.556 13.7901 21.556 15.7734C21.556 17.7568 19.9169 19.2734 18.0436 19.2734C16.0533 19.2734 14.5312 17.7568 14.5312 15.7734Z" fill="#FC3E3E"/>
<path d="M9.5 18C9.5 13.4652 13.1869 9.5 18 9.5C22.8239 9.5 26.5 13.1761 26.5 18C26.5 22.8131 22.5348 26.5 18 26.5C13.1761 26.5 9.5 22.8239 9.5 18Z" stroke="black"/>
</svg>
