<svg width="36" height="36" viewBox="0 0 36 36" fill="none" xmlns="http://www.w3.org/2000/svg">
<circle cx="18" cy="18" r="18" fill="#FD687A"/>
<path fill-rule="evenodd" clip-rule="evenodd" d="M20.0397 11.1397C20.0397 8.85511 18.118 7 15.7473 7C13.3586 7 11.4189 8.83794 11.4189 11.1053C11.4189 13.3898 13.3407 15.245 15.7114 15.245C18.1 15.245 20.0397 13.407 20.0397 11.1397ZM9.40818 24.9783H15.7253C17.866 24.9783 20.0068 24.9783 22.1476 24.9975C23.0425 24.9975 23.4286 24.5751 23.4286 23.5958V23.5955C23.4286 22.8275 23.4286 22.0595 23.411 21.2916C23.3408 19.1218 21.6914 17.3168 19.7085 17.2976C17.0413 17.2784 14.3741 17.2784 11.7069 17.2976C9.75913 17.3168 8.09212 19.1026 8.02193 21.234C7.99561 21.7956 7.9989 22.3573 8.00219 22.9189C8.00329 23.1061 8.00439 23.2933 8.00439 23.4806C8.00439 24.5943 8.37288 24.9783 9.40818 24.9783Z" fill="white"/>
<circle cx="24.7031" cy="23" r="6" fill="#FD687A"/>
<path fill-rule="evenodd" clip-rule="evenodd" d="M24.7031 28C27.4645 28 29.7031 25.7614 29.7031 23C29.7031 20.2386 27.4645 18 24.7031 18C21.9417 18 19.7031 20.2386 19.7031 23C19.7031 25.7614 21.9417 28 24.7031 28ZM25.5563 21.6257L24.8933 19.5854C24.8335 19.4011 24.5728 19.4011 24.5129 19.5854L23.85 21.6257C23.8232 21.7081 23.7464 21.7639 23.6598 21.7639H21.5144C21.3207 21.7639 21.2401 22.0119 21.3969 22.1257L23.1325 23.3867C23.2026 23.4377 23.2319 23.5279 23.2051 23.6103L22.5422 25.6507C22.4823 25.8349 22.6932 25.9881 22.85 25.8743L24.5856 24.6133C24.6557 24.5623 24.7506 24.5623 24.8207 24.6133L26.5563 25.8743C26.713 25.9881 26.9239 25.8349 26.8641 25.6507L26.2011 23.6103C26.1743 23.5279 26.2037 23.4377 26.2738 23.3867L28.0094 22.1257C28.1661 22.0119 28.0856 21.7639 27.8918 21.7639H25.7465C25.6598 21.7639 25.5831 21.7081 25.5563 21.6257Z" fill="white"/>
</svg>
