<svg width="36" height="36" viewBox="0 0 36 36" fill="none" xmlns="http://www.w3.org/2000/svg">
<circle cx="18" cy="18" r="18" fill="#D8EF91"/>
<path fill-rule="evenodd" clip-rule="evenodd" d="M21.8437 13.6797C21.8437 11.649 20.1355 10 18.0282 10C15.9049 10 14.1808 11.6337 14.1808 13.6492C14.1808 15.6799 15.889 17.3289 17.9963 17.3289C20.1195 17.3289 21.8437 15.6951 21.8437 13.6797ZM12.3968 25.9829H18.012C19.9149 25.9829 21.8178 25.9829 23.7207 26C24.5162 26 24.8594 25.6245 24.8594 24.754V24.7538C24.8594 24.0711 24.8594 23.3885 24.8438 22.7058C24.7814 20.7771 23.3152 19.1727 21.5527 19.1557C19.1818 19.1386 16.8109 19.1386 14.4401 19.1557C12.7088 19.1727 11.227 20.7601 11.1646 22.6546C11.1412 23.1539 11.1441 23.6531 11.147 24.1524C11.148 24.3188 11.149 24.4852 11.149 24.6516C11.149 25.6416 11.4765 25.9829 12.3968 25.9829ZM27.1924 23.8629C27.1343 23.5447 27.0846 23.2327 27.036 22.9272C26.9185 22.1882 26.8071 21.4875 26.5961 20.8315C26.3885 20.2105 26.0706 19.6415 25.7481 19.064C25.6076 18.8124 25.4662 18.5592 25.3326 18.2995C25.3727 18.2911 25.4159 18.2807 25.4616 18.2697L25.4619 18.2697L25.462 18.2696C25.6102 18.2341 25.7837 18.1925 25.9573 18.1925H25.9573C27.0505 18.1746 28.1436 18.1568 29.2368 18.1925C30.7985 18.246 32.1046 19.9043 32.1756 21.8657C32.2324 23.3279 32.1898 23.952 30.6423 23.8807C29.8118 23.8304 28.9814 23.8422 28.1808 23.8535L28.1806 23.8535C27.8453 23.8582 27.5151 23.8629 27.1924 23.8629ZM9.01412 23.8862C9.02805 21.7029 9.55766 19.8596 10.8538 18.3742C10.1848 18.1237 6.79815 18.1058 6.2128 18.3205C6.18493 18.3384 6.14312 18.3563 6.10131 18.3742C4.72156 18.9827 3.9829 20.4323 3.99684 22.5798C3.99684 23.4925 4.28951 23.8862 5.00029 23.8862H8.34515H9.01412ZM27.5509 16.8706C26.1301 16.8706 24.9966 15.7866 24.9966 14.443C24.9966 13.0993 26.1461 12 27.5509 12C28.9558 12 30.0893 13.0841 30.0893 14.443C30.0893 15.8171 28.9877 16.8706 27.5509 16.8706ZM6.10602 14.443C6.10602 15.8171 7.20756 16.8706 8.64435 16.8706C10.0652 16.8706 11.1987 15.7866 11.1987 14.443C11.1987 13.0993 10.0492 12 8.64435 12C7.23949 12 6.10602 13.0841 6.10602 14.443Z" fill="#368046"/>
</svg>
