<svg width="36" height="36" viewBox="0 0 36 36" fill="none" xmlns="http://www.w3.org/2000/svg">
<circle cx="18" cy="18" r="18" fill="#FDEDB8"/>
<path fill-rule="evenodd" clip-rule="evenodd" d="M30.1392 16.4642C31.0257 17.3507 31.0257 18.7881 30.1392 19.6747L25.9091 23.9047C21.597 28.2169 14.6056 28.2169 10.2934 23.9047L6.06335 19.6747C5.1768 18.7881 5.1768 17.3507 6.06335 16.4642L10.2934 12.2341C14.6056 7.92196 21.597 7.92196 25.9091 12.2341L30.1392 16.4642ZM25.8331 18.235C25.8331 22.4142 22.4452 25.8022 18.2659 25.8022C14.0867 25.8022 10.6987 22.4142 10.6987 18.235C10.6987 14.0557 14.0867 10.6678 18.2659 10.6678C22.4452 10.6678 25.8331 14.0557 25.8331 18.235ZM22.947 18.2312C22.947 20.8162 20.8515 22.9117 18.2666 22.9117C15.6816 22.9117 13.5861 20.8162 13.5861 18.2312C13.5861 15.6463 15.6816 13.5508 18.2666 13.5508C18.746 13.5508 19.2086 13.6229 19.6442 13.7568C18.8313 14.1236 18.2655 14.9413 18.2655 15.891C18.2655 17.1835 19.3132 18.2312 20.6057 18.2312C21.5559 18.2312 22.3738 17.665 22.7404 16.8515C22.8747 17.2877 22.947 17.751 22.947 18.2312Z" fill="#E17D1A"/>
</svg>
