<svg width="152" height="120" viewBox="0 0 152 120" fill="none" xmlns="http://www.w3.org/2000/svg">
<path fill-rule="evenodd" clip-rule="evenodd" d="M46 10H106C117.046 10 126 18.9543 126 30V90C126 101.046 117.046 110 106 110H46C34.9543 110 26 101.046 26 90V75H16V90C16 106.569 29.4315 120 46 120H106C122.569 120 136 106.569 136 90V30C136 13.4315 122.569 0 106 0H46C29.4315 0 16 13.4315 16 30V45H26V30C26 18.9543 34.9543 10 46 10Z" fill="url(#paint0_linear_3951_12788)"/>
<path fill-rule="evenodd" clip-rule="evenodd" d="M64.25 88.5788L107 60L64.25 31.4212V50.9182H0V68.9182H64.25V88.5788Z" fill="url(#paint1_linear_3951_12788)"/>
<defs>
<linearGradient id="paint0_linear_3951_12788" x1="141.612" y1="1.09194e-06" x2="2.74708" y2="102.757" gradientUnits="userSpaceOnUse">
<stop stop-color="#08EFF6"/>
<stop offset="1" stop-color="#41DD87"/>
</linearGradient>
<linearGradient id="paint1_linear_3951_12788" x1="133" y1="21" x2="65.7682" y2="130.495" gradientUnits="userSpaceOnUse">
<stop stop-color="#08EFF6"/>
<stop offset="1" stop-color="#41DD87"/>
</linearGradient>
</defs>
</svg>
