<svg width="119" height="118" viewBox="0 0 119 118" fill="none" xmlns="http://www.w3.org/2000/svg">
<path d="M111.386 30.9212L103.806 38.5011C106.694 44.7275 108.318 51.6758 108.318 58.985C108.318 85.9057 86.4206 107.803 59.4999 107.803C32.5791 107.803 10.6816 85.9057 10.6816 58.985C10.6816 32.0642 32.5791 10.1667 59.4999 10.1667C68.6138 10.1667 77.1562 12.6633 84.4655 17.0548L91.8348 9.68545C82.5404 3.54932 71.4412 0 59.4999 0C26.9844 0 0.514893 26.4695 0.514893 58.985C0.514893 91.5004 26.9844 117.97 59.4999 117.97C92.0153 117.97 118.485 91.5004 118.485 58.985C118.515 48.8483 115.928 39.2832 111.386 30.9212Z" fill="#FC4359"/>
<path d="M118.455 16.6638L105.25 3.45911L62.5679 46.1713L38.5347 22.1382L25.3601 35.3429L49.3632 59.3459L28.9696 79.7696L42.1442 92.9442L62.5679 72.5506L82.42 92.4028L95.5946 79.1981L75.7425 59.3459L118.455 16.6638Z" fill="#FC4359"/>
</svg>
