<svg viewBox="0 0 32 32" fill="none" xmlns="http://www.w3.org/2000/svg">
<rect width="31.9317" height="31.8245" rx="15.9123" fill="#F3F5F7"/>
<path fill-rule="evenodd" clip-rule="evenodd" d="M22.5433 10.8026C23.0054 10.3405 23.0634 9.64933 22.6729 9.25881C22.2824 8.86828 21.5912 8.92629 21.1291 9.38836L15.9659 14.5516L10.8026 9.38836C10.3405 8.92629 9.64933 8.86828 9.25881 9.25881C8.86828 9.64933 8.92629 10.3405 9.38836 10.8026L14.5516 15.9659L9.49556 21.0219C9.03349 21.484 8.97549 22.1752 9.36601 22.5657C9.75653 22.9562 10.4477 22.8982 10.9098 22.4361L15.9659 17.3801L21.0219 22.4361C21.484 22.8982 22.1752 22.9562 22.5657 22.5657C22.9562 22.1752 22.8982 21.484 22.4361 21.0219L17.3801 15.9659L22.5433 10.8026Z" fill="#7A79A9"/>
</svg>
