<svg width="32" height="32" viewBox="0 0 32 32" fill="none" xmlns="http://www.w3.org/2000/svg">
<circle cx="16" cy="16" r="15.5" fill="#F3F4F6" stroke="#7A79A9"/>
<circle cx="16" cy="16" r="13.8667" fill="#7A79A9"/>
<path d="M8.81678 13.5982C10.334 14.5488 11.6344 15.7489 12.6161 17.2877C16.205 12.4812 21.1454 7.63899 26.5192 7.46669C26.6722 7.46075 26.7232 7.65087 26.5894 7.71623C21.3048 10.3067 16.8935 17.258 13.8591 23.8173C13.6105 24.352 12.9794 24.6431 12.3675 24.4946C11.9914 24.4055 11.6726 24.1559 11.5196 23.8232C10.0726 20.7397 8.37693 17.7809 6.50278 14.9053C6.27966 14.5607 6.43265 14.1091 6.83426 13.9487L7.9307 13.515C8.21756 13.4021 8.54904 13.4318 8.81678 13.5982Z" fill="white"/>
</svg>
