<svg width="125" height="118" viewBox="0 0 125 118" fill="none" xmlns="http://www.w3.org/2000/svg">
<path d="M109.975 28.6425C107.568 31.0495 105.161 33.6971 102.754 36.5553C106.244 43.2647 108.23 50.9067 108.23 58.9699C108.23 85.8975 86.327 107.801 59.3994 107.801C32.4718 107.801 10.5687 85.8975 10.5687 58.9699C10.5687 32.0423 32.4718 10.1392 59.3994 10.1392C70.1404 10.1392 80.069 13.6293 88.1322 19.5263C91.0807 17.2698 94.0292 15.254 96.9777 13.539C86.7783 5.08465 73.6906 0 59.3994 0C26.8757 0 0.399414 26.4763 0.399414 59C0.399414 91.5237 26.8757 118 59.3994 118C91.9231 118 118.399 91.5237 118.399 59C118.43 47.9281 115.331 37.5181 109.975 28.6425Z" fill="url(#paint0_linear_2531_15617)"/>
<path d="M40.3545 41.2187C47.5151 46.0326 53.6528 52.1101 58.2862 59.9026C75.225 35.5624 98.5422 11.0418 123.905 10.1693C124.627 10.1392 124.868 11.102 124.236 11.4329C99.2943 24.5507 78.4743 59.7521 64.1531 92.9678C62.9797 95.6756 60.0011 97.1499 57.1128 96.3977C55.3377 95.9464 53.8333 94.6828 53.1113 92.9979C46.2816 77.3829 38.2785 62.3998 29.433 47.8378C28.38 46.0928 29.1021 43.8062 30.9975 42.9938L36.1725 40.7975C37.5264 40.2259 39.0909 40.3763 40.3545 41.2187Z" fill="url(#paint1_linear_2531_15617)"/>
<defs>
<linearGradient id="paint0_linear_2531_15617" x1="120.5" y1="-7" x2="3.18854e-06" y2="109.5" gradientUnits="userSpaceOnUse">
<stop stop-color="#19F0DA"/>
<stop offset="1" stop-color="#53D663"/>
</linearGradient>
<linearGradient id="paint1_linear_2531_15617" x1="29" y1="73" x2="124.608" y2="53.3889" gradientUnits="userSpaceOnUse">
<stop stop-color="#53D663"/>
<stop offset="1" stop-color="#08EFF6"/>
</linearGradient>
</defs>
</svg>
