<svg viewBox="0 0 32 32" fill="none" xmlns="http://www.w3.org/2000/svg">
<path d="M16 32C24.8366 32 32 24.8366 32 16C32 7.16344 24.8366 0 16 0C7.16344 0 0 7.16344 0 16C0 24.8366 7.16344 32 16 32Z" fill="#AFAFC0"/>
<path d="M15.9999 30.0342C23.7508 30.0342 30.0342 23.7508 30.0342 15.9999C30.0342 8.24894 23.7508 1.96558 15.9999 1.96558C8.24894 1.96558 1.96558 8.24894 1.96558 15.9999C1.96558 23.7508 8.24894 30.0342 15.9999 30.0342Z" fill="#AFAFC0"/>
<path d="M16.0001 30.3935C13.155 30.3924 10.3741 29.5477 8.00898 27.9663C5.64387 26.385 3.8007 24.1379 2.71247 21.5091C1.62424 18.8804 1.33982 15.988 1.89516 13.1977C2.45049 10.4073 3.82065 7.84422 5.83244 5.83244C7.84422 3.82065 10.4073 2.45049 13.1977 1.89516C15.988 1.33982 18.8804 1.62424 21.5091 2.71247C24.1379 3.8007 26.385 5.64387 27.9663 8.00898C29.5477 10.3741 30.3924 13.155 30.3935 16.0001C30.3899 19.8163 28.8723 23.4752 26.1738 26.1738C23.4752 28.8723 19.8163 30.3899 16.0001 30.3935V30.3935ZM16.0001 2.32299C13.2937 2.3226 10.6481 3.12476 8.39766 4.62803C6.14724 6.1313 4.39315 8.26815 3.35722 10.7684C2.32128 13.2686 2.05003 16.0198 2.57777 18.6742C3.10551 21.3286 4.40853 23.7668 6.32205 25.6806C8.23557 27.5944 10.6736 28.8978 13.3279 29.4259C15.9822 29.954 18.7335 29.6832 21.2339 28.6476C23.7342 27.612 25.8713 25.8582 27.3749 23.608C28.8785 21.3578 29.6811 18.7123 29.6811 16.006C29.6785 12.3776 28.2365 8.89851 25.6716 6.33213C23.1067 3.76576 19.6284 2.32177 16.0001 2.31707V2.32299Z" fill="white"/>
<path d="M10.539 22.9509H9.26799V21.6167H8.56934V24.7942H9.26799V23.5232H10.539V24.7942H11.2396V21.6167H10.539V22.9509Z" fill="white"/>
<path d="M11.2492 13.2904C11.1057 12.2579 11.0207 11.2182 10.9946 10.1761C11.0519 9.47348 11.2492 9.22283 11.3025 8.90508C11.3271 8.85301 11.3352 8.79466 11.3257 8.73786C11.3162 8.68106 11.2895 8.62853 11.2492 8.58733C10.8664 8.26958 10.6137 7.63606 10.4855 7.25318C10.4855 7.19002 10.4223 7.19002 10.3591 7.25318C10.2309 7.50777 10.0414 7.82552 9.91311 8.08012C9.85475 8.16226 9.81832 8.25794 9.80727 8.35809C9.79622 8.45825 9.81091 8.55957 9.84996 8.65246C10.1823 10.2027 10.4124 11.7731 10.5387 13.3536C10.667 14.8792 10.9848 16.5962 9.14144 17.1666C8.44278 17.3639 7.56255 17.4212 6.91718 17.2317C5.20212 16.7225 5.58303 14.816 6.15537 13.7996C5.01068 14.8792 4.37913 17.1034 5.90078 18.1218C6.91718 18.8836 8.56909 18.9468 9.77694 18.0567C11.6203 16.6594 11.4288 15.3943 11.2492 13.2904Z" fill="white"/>
<path d="M13.026 21.6167L11.6287 24.7922H12.3905L12.7082 24.0936H13.9792L14.297 24.7922H15.0608L13.6615 21.6167H13.026ZM12.9628 23.5232L13.3437 22.5699L13.7246 23.5232H12.9628Z" fill="white"/>
<path d="M12.2562 12.0191C13.8449 12.6546 14.6067 13.7953 14.8613 14.8788C15.4337 12.1474 13.2824 10.3672 11.6838 9.73169C11.5575 9.73169 11.4865 9.73169 11.4865 9.858C11.4742 10.3674 11.496 10.8771 11.5516 11.3836C11.6207 11.7645 11.747 11.8928 12.2562 12.0191Z" fill="white"/>
<path d="M18.9291 21.6167L17.5298 24.7922H18.2936L18.6113 24.0936H19.9455L20.2001 24.7922H20.9619L19.6277 21.6167H18.9291ZM18.8659 23.5232L19.2468 22.5699L19.6909 23.5232H18.8659Z" fill="white"/>
<path d="M26.9358 15.0707C24.9622 15.197 24.2024 14.4352 22.9886 13.8628C22.1617 13.4188 21.2124 13.1642 20.3815 13.7997C19.8743 14.2438 19.3651 15.197 19.1756 15.8325C19.5793 15.3097 20.1728 14.9671 20.8275 14.8793C21.8439 14.8161 22.4163 15.3253 23.2412 15.5799C22.5426 16.3417 20.4466 16.5331 19.5565 16.4048C18.7927 16.2785 18.4118 16.0871 18.1572 15.0707C17.9046 13.6083 18.2224 9.41435 17.3954 8.77885C17.2691 8.71569 17.2691 8.77885 17.1981 8.842C16.6415 11.1314 16.381 13.6181 14.9245 15.5148C13.5903 17.2318 11.9384 17.9304 9.96875 18.5028C11.6207 18.9468 14.735 17.9304 15.6231 16.5292C16.5112 15.1279 16.8941 13.7957 17.202 12.3333C17.2671 13.3497 17.2671 13.9872 17.3303 15.1299C17.4566 16.5923 18.1553 17.7351 19.9354 17.7351C21.7788 17.7351 23.7484 16.4641 25.7181 16.4641C25.9727 16.4641 26.099 16.4641 26.2273 16.2667L26.9891 15.122C26.987 15.1088 26.9807 15.0966 26.9711 15.0874C26.9615 15.0781 26.9491 15.0723 26.9358 15.0707Z" fill="white"/>
<path d="M16.1322 21.6167H15.4336V24.7942H17.4664V24.1587H16.1322V21.6167Z" fill="white"/>
<path d="M22.0432 21.6167H21.3425V24.7942H23.3773V24.1587H22.0432V21.6167Z" fill="white"/>
</svg>
