<svg viewBox="0 0 32 32" fill="none" xmlns="http://www.w3.org/2000/svg">
<circle cx="16" cy="16" r="15.5" fill="white" stroke="#AFAFC0"/>
<circle cx="16" cy="16" r="13.8667" fill="#AFAFC0"/>
<path d="M9.01733 14.602C7.61305 15.9791 6.5063 17.6559 5.8051 19.2156C5.7163 19.4075 5.67868 19.5829 5.85303 19.7263L6.58872 20.0528C6.74693 20.1073 6.94208 20.0544 7.08328 19.9159C7.11953 19.8804 7.17295 19.828 7.208 19.7225C7.80132 18.3734 8.83834 16.8698 10.0633 15.6686C11.2882 14.4673 12.7052 13.5307 14.1665 12.8949C14.2726 12.8619 14.3261 12.8095 14.3623 12.7739C14.5054 12.6336 14.5774 12.4245 14.526 12.2653L14.2177 11.5234C14.0437 11.346 13.8164 11.3967 13.674 11.4652C12.0669 12.1355 10.4216 13.2249 9.01733 14.602Z" fill="white"/>
<path fill-rule="evenodd" clip-rule="evenodd" d="M10.5123 16.1303C9.34079 17.2791 8.43227 18.5893 7.81953 19.9912C7.67661 20.3072 7.83312 20.5355 8.04404 20.6094L18.5973 24.371C18.5973 24.371 15.1625 14.0479 15.041 13.7103C14.9387 13.3578 14.6568 13.391 14.4101 13.4944C13.1046 14.0448 11.6838 14.9814 10.5123 16.1303ZM14.232 15.4806C14.5968 15.8527 14.6269 16.452 14.2186 16.8524C13.8102 17.2529 13.2116 17.2111 12.8467 16.8391C12.4819 16.467 12.4518 15.8677 12.8601 15.4672C13.2685 15.0668 13.8671 15.1086 14.232 15.4806ZM15.7723 20.1047C16.1371 20.4768 16.1672 21.0761 15.7589 21.4765C15.3506 21.8769 14.7519 21.8352 14.3871 21.4631C14.0222 21.0911 13.9922 20.4917 14.4005 20.0913C14.8088 19.6909 15.4074 19.7327 15.7723 20.1047ZM11.6132 18.9208C11.9781 19.2929 12.0081 19.8922 11.5998 20.2926C11.1915 20.693 10.5929 20.6513 10.228 20.2792C9.86315 19.9072 9.83309 19.3078 10.2414 18.9074C10.6497 18.507 11.2296 18.5297 11.6132 18.9208Z" fill="white"/>
<path d="M18.3637 10.5044C18.4832 9.44629 19.2341 8.71242 20.5141 8.71242C21.8112 8.71242 22.6987 9.49749 22.6987 10.6068C22.6987 11.1359 22.4256 12.0063 21.4016 12.3476C19.2853 13.0474 19.5243 14.4554 19.5243 15.6159H20.7701C20.7701 14.4554 20.6848 13.8836 21.6747 13.5423C23.2277 13.0132 23.9957 12.0234 23.9957 10.6068C23.9957 8.88309 22.8864 7.46655 20.5141 7.46655C18.4491 7.46655 17.1349 8.74655 17.0667 10.5044H18.3637ZM20.1045 18.8244C20.6165 18.8244 21.0432 18.3978 21.0432 17.8687C21.0432 17.3567 20.6165 16.93 20.1045 16.93C19.5755 16.93 19.1488 17.3567 19.1488 17.8687C19.1488 18.3978 19.5755 18.8244 20.1045 18.8244Z" fill="white"/>
</svg>
