<svg viewBox="0 0 32 32" fill="none" xmlns="http://www.w3.org/2000/svg">
<rect width="32" height="32" rx="16" fill="#7A79A9"/>
<path fill-rule="evenodd" clip-rule="evenodd" d="M24 16C24 16.5523 23.5496 17 22.994 17L9.00598 17C8.45039 17 8 16.5523 8 16C8 15.4477 8.45039 15 9.00598 15L22.994 15C23.5496 15 24 15.4477 24 16Z" fill="white"/>
<path fill-rule="evenodd" clip-rule="evenodd" d="M16 8C16.5523 8 17 8.45039 17 9.00598L17 22.994C17 23.5496 16.5523 24 16 24C15.4477 24 15 23.5496 15 22.994L15 9.00598C15 8.45039 15.4477 8 16 8Z" fill="white"/>
</svg>
