<svg viewBox="0 0 32 32" fill="none" xmlns="http://www.w3.org/2000/svg">
<rect width="32" height="32" rx="16" fill="#AFAFC0"/>
<path fill-rule="evenodd" clip-rule="evenodd" d="M10.5 7C9.94772 7 9.5 7.44772 9.5 8V24C9.5 24.5523 9.94772 25 10.5 25H21.5C22.0523 25 22.5 24.5523 22.5 24V8C22.5 7.44772 22.0523 7 21.5 7H10.5ZM11.5 8C10.9477 8 10.5 8.44772 10.5 9V23C10.5 23.5523 10.9477 24 11.5 24H20.5C21.0523 24 21.5 23.5523 21.5 23V9C21.5 8.44772 21.0523 8 20.5 8H11.5Z" fill="white"/>
<path fill-rule="evenodd" clip-rule="evenodd" d="M6.5 14C6.5 12.8954 7.39543 12 8.5 12H23.5C24.6046 12 25.5 12.8954 25.5 14V18C25.5 19.1046 24.6046 20 23.5 20H21.5V17H10.5V20H8.5C7.39543 20 6.5 19.1046 6.5 18V14ZM23.5 15C24.0523 15 24.5 14.5523 24.5 14C24.5 13.4477 24.0523 13 23.5 13C22.9477 13 22.5 13.4477 22.5 14C22.5 14.5523 22.9477 15 23.5 15Z" fill="white"/>
<rect x="11.5" y="19" width="9" height="1" fill="white"/>
<rect x="11.5" y="21" width="6" height="1" fill="white"/>
</svg>
