<svg viewBox="0 0 32 32" fill="none" xmlns="http://www.w3.org/2000/svg">
<path d="M16 32C24.8366 32 32 24.8366 32 16C32 7.16344 24.8366 0 16 0C7.16344 0 0 7.16344 0 16C0 24.8366 7.16344 32 16 32Z" fill="#AFAFC0"/>
<path d="M15.9999 31.0509C24.3124 31.0509 31.0509 24.3124 31.0509 15.9999C31.0509 7.68752 24.3124 0.948975 15.9999 0.948975C7.68752 0.948975 0.948975 7.68752 0.948975 15.9999C0.948975 24.3124 7.68752 31.0509 15.9999 31.0509Z" fill="white"/>
<path d="M16 29.8078C23.6258 29.8078 29.8078 23.6258 29.8078 16C29.8078 8.37412 23.6258 2.19214 16 2.19214C8.37412 2.19214 2.19214 8.37412 2.19214 16C2.19214 23.6258 8.37412 29.8078 16 29.8078Z" fill="#AFAFC0"/>
<path fill-rule="evenodd" clip-rule="evenodd" d="M10.3435 8.85899C11.6657 9.64153 14.8725 11.83 16.4335 15.2574C15.227 17.4429 14.9377 19.8088 15.5802 22.2257C14.0868 20.7509 11.3911 17.4423 11.0624 12.5273C11.0624 12.5273 10.0119 18.6813 15.6654 23.5733C15.6654 23.5733 11.8224 23.5656 9.65361 19.8038C7.48482 16.0421 9.70937 10.5442 10.3435 8.8584" fill="white"/>
<path fill-rule="evenodd" clip-rule="evenodd" d="M22.006 10.6562C20.1283 11.7674 13.8978 16.1231 16.5678 23.1008C16.5678 23.1008 20.9782 19.8418 21.3778 13.8622C21.3778 13.8622 22.2958 19.2395 17.3557 23.5141C17.3557 23.5141 20.7128 23.5074 22.6087 20.2204C24.5046 16.9333 22.56 12.1293 22.0058 10.6562" fill="white"/>
</svg>
