<svg width="24" height="24" viewBox="0 0 24 24" fill="none" xmlns="http://www.w3.org/2000/svg">
<path fill-rule="evenodd" clip-rule="evenodd" d="M11.4419 0C8.05285 0 5.30234 2.75051 5.30234 6.13954C5.30234 9.52857 8.05285 12.2791 11.4419 12.2791C14.8309 12.2791 17.5814 9.52857 17.5814 6.13954C17.5814 2.75051 14.8309 0 11.4419 0ZM11.4419 1.67442C13.9066 1.67442 15.907 3.6748 15.907 6.13954C15.907 8.60429 13.9066 10.6047 11.4419 10.6047C8.97713 10.6047 6.97676 8.60429 6.97676 6.13954C6.97676 3.6748 8.97713 1.67442 11.4419 1.67442ZM11.4419 21.2239H1.89768C1.83851 21.2239 1.78158 21.1993 1.74028 21.158C1.69786 21.1156 1.67442 21.0598 1.67442 21.0006V19.3809C1.67442 18.4544 2.33637 17.6372 3.35666 16.9429C5.17842 15.6994 8.12652 14.9157 11.4419 14.9157C11.904 14.9157 12.2791 14.5407 12.2791 14.0785C12.2791 13.6175 11.904 13.2413 11.4419 13.2413C7.73359 13.2413 4.45061 14.169 2.41228 15.5587C0.857303 16.6192 0 17.9665 0 19.3809V21.0006C0 21.5029 0.199814 21.9863 0.555908 22.3424C0.912001 22.6973 1.39423 22.8983 1.89768 22.8983H11.4419C11.904 22.8972 12.2791 22.5221 12.2791 22.0599C12.2791 21.5989 11.904 21.2227 11.4419 21.2239ZM13.1163 18.9767H14.2518C14.3541 19.4537 14.5421 19.8992 14.7989 20.2961L13.9959 21.0998C13.6689 21.4257 13.6689 21.9571 13.9959 22.283C14.3219 22.6101 14.8532 22.6101 15.1792 22.283L15.9825 21.4804C16.3794 21.7376 16.825 21.9259 17.3023 22.0284V23.1626C17.3023 23.6248 17.6774 23.9998 18.1396 23.9998C18.6017 23.9998 18.9768 23.6248 18.9768 23.1626V22.0284C19.4541 21.9259 19.8997 21.7377 20.2968 21.4806L21.0999 22.283C21.4259 22.6101 21.9572 22.6101 22.2832 22.283C22.6103 21.9571 22.6103 21.4257 22.2832 21.0998L21.4807 20.2966C21.7377 19.8996 21.926 19.4539 22.0284 18.9767H23.1628C23.625 18.9767 24 18.6016 24 18.1395C24 17.6773 23.625 17.3023 23.1628 17.3023H22.0283C21.9258 16.8251 21.7376 16.3796 21.4805 15.9827L22.2832 15.1793C22.6103 14.8533 22.6103 14.322 22.2832 13.996C21.9572 13.6689 21.4259 13.6689 21.0999 13.996L20.2962 14.7991C19.8993 14.5423 19.4538 14.3542 18.9768 14.2519V13.1163C18.9768 12.6542 18.6017 12.2791 18.1396 12.2791C17.6774 12.2791 17.3023 12.6542 17.3023 13.1163V14.2519C16.8253 14.3543 16.3799 14.5423 15.983 14.7992L15.1792 13.996C14.8532 13.6689 14.3219 13.6689 13.9959 13.996C13.6689 14.322 13.6689 14.8533 13.9959 15.1793L14.7991 15.9831C14.5423 16.3799 14.3542 16.8253 14.2518 17.3023H13.1163C12.6542 17.3023 12.2791 17.6773 12.2791 18.1395C12.2791 18.6016 12.6542 18.9767 13.1163 18.9767ZM16.5082 16.5159C16.0934 16.9323 15.8367 17.5062 15.8367 18.1396C15.8367 18.7657 16.0875 19.3341 16.494 19.7495C16.5001 19.7552 16.5061 19.761 16.512 19.7669C16.518 19.7729 16.5238 19.7789 16.5295 19.785C16.9358 20.1826 17.4884 20.4313 18.0982 20.4421C18.1119 20.4415 18.1257 20.4411 18.1396 20.4411C18.153 20.4412 18.1663 20.4415 18.1796 20.4422C18.79 20.4317 19.3431 20.1829 19.7496 19.785L19.758 19.7762L19.7671 19.7669C19.773 19.761 19.779 19.7552 19.7851 19.7495C20.1916 19.3341 20.4424 18.7657 20.4424 18.1396C20.4424 17.5061 20.1857 16.9321 19.7707 16.5157L19.7671 16.5121L19.7639 16.5088C19.3472 16.0943 18.7729 15.8378 18.1396 15.8378C17.5062 15.8378 16.9319 16.0942 16.5153 16.5088C16.5142 16.5099 16.5131 16.511 16.512 16.5121C16.5108 16.5134 16.5095 16.5146 16.5082 16.5159Z" fill="white"/>
</svg>
