<svg width="32" height="32" viewBox="0 0 32 32" fill="none" xmlns="http://www.w3.org/2000/svg">
<path fill-rule="evenodd" clip-rule="evenodd" d="M11.0199 9.34655C10.5578 8.88448 9.80863 8.88448 9.34655 9.34655C8.88448 9.80863 8.88448 10.5578 9.34655 11.0199L14.3268 16.0001L9.34671 20.9801C8.88464 21.4422 8.88464 22.1914 9.34671 22.6534C9.80878 23.1155 10.558 23.1155 11.02 22.6534L16.0001 17.6734L20.9801 22.6534C21.4422 23.1155 22.1914 23.1155 22.6534 22.6534C23.1155 22.1914 23.1155 21.4422 22.6534 20.9801L17.6734 16.0001L22.6536 11.0199C23.1157 10.5578 23.1157 9.80863 22.6536 9.34655C22.1915 8.88448 21.4423 8.88448 20.9803 9.34655L16.0001 14.3268L11.0199 9.34655Z" fill="#7A7A7A"/>
</svg>
