<svg width="14" height="14" viewBox="0 0 14 14" fill="none" xmlns="http://www.w3.org/2000/svg">
<path d="M2.48387 11.4588H8.97492C10.3443 11.4588 11.4588 10.3445 11.4588 8.97492V2.48387C11.4588 1.11426 10.3443 0 8.97492 0H2.48387C1.11426 0 0 1.11426 0 2.48387V8.97492C0 10.3445 1.11426 11.4588 2.48387 11.4588ZM1.35484 2.48387C1.35484 1.86136 1.86136 1.35484 2.48387 1.35484H8.97492C9.59765 1.35484 10.104 1.86136 10.104 2.48387V8.97492C10.104 9.59743 9.59765 10.104 8.97492 10.104H2.48387C1.86136 10.104 1.35484 9.59743 1.35484 8.97492V2.48387Z" fill="white"/>
<path d="M13.3228 5.052C12.9489 5.052 12.6454 5.35521 12.6454 5.72942V10.6129C12.6454 11.7336 11.7338 12.6452 10.6132 12.6452H5.72966C5.35545 12.6452 5.05225 12.9484 5.05225 13.3226C5.05225 13.6968 5.35545 14 5.72966 14H10.6132C12.4809 14 14.0003 12.4807 14.0003 10.6129V5.72942C14.0003 5.35521 13.6968 5.052 13.3228 5.052Z" fill="white"/>
<path d="M3.70476 6.4067H5.0521V7.75382C5.0521 8.12803 5.35531 8.43123 5.72952 8.43123C6.10373 8.43123 6.40694 8.12803 6.40694 7.75382V6.4067H7.75428C8.12828 6.4067 8.4317 6.10349 8.4317 5.72928C8.4317 5.35507 8.12827 5.05186 7.75428 5.05186H6.40694V3.70452C6.40694 3.33031 6.10373 3.0271 5.72952 3.0271C5.35531 3.0271 5.0521 3.33031 5.0521 3.70452V5.05186H3.70476C3.33055 5.05186 3.02734 5.35507 3.02734 5.72928C3.02734 6.10349 3.33055 6.4067 3.70476 6.4067Z" fill="white"/>
</svg>
