<svg width="32" height="32" viewBox="0 0 32 32" fill="none" xmlns="http://www.w3.org/2000/svg">
<rect width="32" height="32" rx="8" fill="#203D68"/>
<path d="M24 23C24 23.5523 23.5523 24 23 24H9C8.44772 24 8 23.5523 8 23C8 22.4477 8.44772 22 9 22H23C23.5523 22 24 22.4477 24 23ZM15.2929 19.8321C15.4882 20.0274 15.7441 20.125 16 20.125C16.2559 20.125 16.5119 20.0274 16.7071 19.8321L20.2502 16.2891C20.6407 15.8986 20.6407 15.2654 20.2502 14.8749C19.8596 14.4843 19.2265 14.4843 18.8359 14.8749L17 16.7108V9C17 8.44772 16.5523 8 16 8C15.4477 8 15 8.44772 15 9V16.7108L13.1641 14.8749C12.7735 14.4843 12.1404 14.4843 11.7498 14.8749C11.3593 15.2654 11.3593 15.8986 11.7498 16.2891L15.2929 19.8321Z" fill="white"/>
</svg>
