<svg width="24" height="20" viewBox="0 0 24 20" fill="none" xmlns="http://www.w3.org/2000/svg">
<path d="M21.4286 3.33334H19.0594C18.9002 3.33384 18.7439 3.29092 18.6085 3.20947C18.4731 3.12801 18.3638 3.01128 18.2931 2.87251L17.526 1.38168C17.3137 0.965527 16.9857 0.615517 16.5792 0.371316C16.1728 0.127115 15.7041 -0.00151151 15.2263 1.34027e-05H8.77371C8.29591 -0.00151151 7.82722 0.127115 7.42076 0.371316C7.0143 0.615517 6.68632 0.965527 6.474 1.38168L5.70257 2.87251C5.63224 3.01064 5.52365 3.12696 5.38904 3.20837C5.25442 3.28978 5.09911 3.33306 4.94057 3.33334H2.57143C1.88944 3.33334 1.23539 3.59674 0.753154 4.06558C0.270918 4.53442 0 5.1703 0 5.83334V17.5C0 18.163 0.270918 18.7989 0.753154 19.2678C1.23539 19.7366 1.88944 20 2.57143 20H21.4286C22.1106 20 22.7646 19.7366 23.2468 19.2678C23.7291 18.7989 24 18.163 24 17.5V5.83334C24 5.1703 23.7291 4.53442 23.2468 4.06558C22.7646 3.59674 22.1106 3.33334 21.4286 3.33334ZM22.2857 17.5C22.2857 17.721 22.1954 17.933 22.0347 18.0893C21.8739 18.2455 21.6559 18.3333 21.4286 18.3333H2.57143C2.3441 18.3333 2.12608 18.2455 1.96534 18.0893C1.80459 17.933 1.71429 17.721 1.71429 17.5V5.83334C1.71429 5.61233 1.80459 5.40037 1.96534 5.24409C2.12608 5.08781 2.3441 5.00001 2.57143 5.00001H4.94057C5.41838 5.00153 5.88707 4.87291 6.29353 4.62871C6.69999 4.38451 7.02796 4.0345 7.24029 3.61834L8.01171 2.12751C8.08205 1.98938 8.19063 1.87307 8.32525 1.79165C8.45987 1.71024 8.61518 1.66696 8.77371 1.66668H15.2263C15.3855 1.66618 15.5418 1.7091 15.6772 1.79055C15.8127 1.87201 15.9219 1.98874 15.9926 2.12751L16.7597 3.61834C16.972 4.0345 17.3 4.38451 17.7065 4.62871C18.1129 4.87291 18.5816 5.00153 19.0594 5.00001H21.4286C21.6559 5.00001 21.8739 5.08781 22.0347 5.24409C22.1954 5.40037 22.2857 5.61233 22.2857 5.83334V17.5Z" fill="white"/>
<path d="M17.0808 10.0075C16.8538 10.0215 16.6416 10.1249 16.4908 10.2951C16.3401 10.4654 16.263 10.6885 16.2766 10.9155C16.3096 11.4972 16.2234 12.0794 16.0232 12.6266C15.8231 13.1737 15.5133 13.6742 15.1127 14.0973C14.7122 14.5204 14.2295 14.8572 13.6941 15.087C13.1588 15.3169 12.5821 15.4349 11.9995 15.4338C11.4384 15.4304 10.8838 15.3136 10.3689 15.0905C10.421 14.9612 10.4403 14.8209 10.4251 14.6823C10.4098 14.5436 10.3606 14.4109 10.2817 14.2959C10.2028 14.1809 10.0967 14.0872 9.97279 14.0231C9.84892 13.959 9.71113 13.9266 9.57168 13.9286H8.35821C8.13061 13.9286 7.91233 14.019 7.75139 14.1799C7.59045 14.3409 7.50003 14.5591 7.50003 14.7868V16.0011C7.49838 16.1918 7.56087 16.3775 7.67746 16.5284C7.79406 16.6793 7.958 16.7867 8.14294 16.8332C8.32789 16.8797 8.52311 16.8628 8.69724 16.785C8.87138 16.7072 9.01432 16.5732 9.10311 16.4044C10.0416 16.9234 11.102 17.1811 12.174 17.1508C13.2459 17.1204 14.2901 16.8031 15.1977 16.2319C16.1053 15.6607 16.8431 14.8565 17.3341 13.9032C17.8252 12.9498 18.0515 11.8822 17.9896 10.8117C17.9757 10.5845 17.8721 10.3722 17.7017 10.2214C17.5312 10.0706 17.3079 9.99369 17.0808 10.0075Z" fill="white"/>
<path d="M7.72273 11.3703C7.68976 10.7886 7.77599 10.2063 7.97614 9.65919C8.17629 9.11204 8.48613 8.61156 8.88665 8.18846C9.28716 7.76536 9.76991 7.42857 10.3053 7.19874C10.8406 6.96892 11.4173 6.85091 11.9999 6.85196C12.561 6.8554 13.1156 6.97216 13.6304 7.19523C13.5784 7.32461 13.5591 7.46486 13.5743 7.6035C13.5896 7.74213 13.6388 7.87485 13.7177 7.98985C13.7966 8.10485 13.9027 8.19857 14.0266 8.26266C14.1505 8.32675 14.2882 8.35923 14.4277 8.35721H15.6412C15.8688 8.35721 16.0871 8.26679 16.248 8.10585C16.4089 7.94491 16.4993 7.72663 16.4993 7.49903V6.28813C16.501 6.09743 16.4385 5.91171 16.3219 5.76079C16.2053 5.60988 16.0414 5.50253 15.8564 5.456C15.6715 5.40946 15.4763 5.42644 15.3021 5.50421C15.128 5.58197 14.9851 5.71601 14.8963 5.88479C13.9581 5.36604 12.898 5.10834 11.8263 5.13855C10.7547 5.16876 9.71077 5.48576 8.8033 6.05654C7.89582 6.62731 7.15799 7.43098 6.66667 8.38382C6.17536 9.33667 5.94852 10.4038 6.0098 11.4741C6.02315 11.6925 6.11943 11.8976 6.27894 12.0474C6.43846 12.1972 6.64917 12.2804 6.86799 12.28H6.92119C7.14803 12.2654 7.35982 12.1614 7.51009 11.9909C7.66036 11.8203 7.73684 11.5971 7.72273 11.3703Z" fill="white"/>
</svg>
