<svg width="24" height="24" viewBox="0 0 24 24" fill="none" xmlns="http://www.w3.org/2000/svg">
<path d="M17.1967 17.6001C16.9844 17.6001 16.7809 17.5158 16.6308 17.3657C16.4807 17.2157 16.3963 17.0122 16.3963 16.8001C16.399 15.8159 16.0702 14.8594 15.463 14.0847C14.8558 13.3099 14.0054 12.7619 13.0487 12.5289C12.8855 12.4889 12.739 12.3986 12.63 12.2707C12.521 12.1429 12.455 11.984 12.4414 11.8165C12.4278 11.6491 12.4673 11.4817 12.5542 11.3379C12.6412 11.1942 12.7712 11.0814 12.9259 11.0157C13.4368 10.8007 13.8575 10.4156 14.1167 9.92587C14.3759 9.43611 14.4576 8.87179 14.3479 8.32868C14.2382 7.78558 13.9438 7.29714 13.5148 6.94626C13.0858 6.59538 12.5486 6.40368 11.9942 6.40368C11.4399 6.40368 10.9026 6.59538 10.4736 6.94626C10.0446 7.29714 9.75028 7.78558 9.64057 8.32868C9.53086 8.87179 9.61253 9.43611 9.87172 9.92587C10.1309 10.4156 10.5517 10.8007 11.0626 11.0157C11.2172 11.0814 11.3472 11.1942 11.4342 11.3379C11.5212 11.4817 11.5606 11.6491 11.5471 11.8165C11.5335 11.984 11.4675 12.1429 11.3585 12.2707C11.2495 12.3986 11.103 12.4889 10.9397 12.5289C9.98305 12.7619 9.13266 13.3099 8.52543 14.0847C7.91819 14.8594 7.58945 15.8159 7.59211 16.8001C7.59211 17.0122 7.50779 17.2157 7.35769 17.3657C7.20759 17.5158 7.00401 17.6001 6.79173 17.6001C6.57946 17.6001 6.37588 17.5158 6.22577 17.3657C6.07567 17.2157 5.99135 17.0122 5.99135 16.8001C5.98895 15.7281 6.27476 14.6751 6.81889 13.7514C7.36302 12.8276 8.14547 12.0669 9.08443 11.5489C8.54775 10.9807 8.18929 10.2679 8.05331 9.49851C7.91734 8.72906 8.0098 7.93666 8.31928 7.21915C8.62876 6.50163 9.14172 5.89043 9.7948 5.461C10.4479 5.03158 11.2125 4.80273 11.9942 4.80273C12.7759 4.80273 13.5406 5.03158 14.1936 5.461C14.8467 5.89043 15.3597 6.50163 15.6692 7.21915C15.9786 7.93666 16.0711 8.72906 15.9351 9.49851C15.7992 10.2679 15.4407 10.9807 14.904 11.5489C15.843 12.0669 16.6254 12.8276 17.1695 13.7514C17.7137 14.6751 17.9995 15.7281 17.9971 16.8001C17.9971 17.0122 17.9128 17.2157 17.7627 17.3657C17.6126 17.5158 17.409 17.6001 17.1967 17.6001Z" fill="white"/>
<path d="M11.9943 24C10.2826 23.9984 8.59117 23.6309 7.03326 22.9224C5.47535 22.2138 4.08703 21.1805 2.96141 19.8917C1.83579 18.6029 0.998879 17.0884 0.506817 15.4498C0.0147554 13.8112 -0.121087 12.0864 0.108401 10.3911C0.337889 8.69573 0.927402 7.06902 1.8374 5.62005C2.74741 4.17108 3.95686 2.93334 5.38466 1.98985C6.81245 1.04636 8.42558 0.418917 10.1159 0.149611C11.8061 -0.119695 13.5345 -0.0246421 15.185 0.428395C15.3897 0.484727 15.5637 0.620045 15.6686 0.804581C15.7735 0.989117 15.8008 1.20775 15.7445 1.4124C15.6881 1.61704 15.5527 1.79092 15.3681 1.89579C15.1835 2.00066 14.9647 2.02793 14.76 1.9716C12.5394 1.36165 10.1791 1.50612 8.04957 2.38231C5.92005 3.25851 4.14198 4.8168 2.99455 6.81251C1.84711 8.80821 1.3953 11.1283 1.71005 13.4085C2.0248 15.6887 3.08829 17.7998 4.73353 19.4104C6.37877 21.021 8.51258 22.0398 10.7999 22.3069C13.0872 22.5739 15.3985 22.0742 17.3709 20.886C19.3432 19.6978 20.8649 17.8886 21.6971 15.7423C22.5292 13.596 22.6245 11.2343 21.9682 9.028C21.9374 8.92705 21.9269 8.821 21.9372 8.71596C21.9476 8.61093 21.9786 8.50898 22.0286 8.41599C22.0785 8.323 22.1464 8.2408 22.2283 8.17415C22.3102 8.10749 22.4044 8.05769 22.5056 8.02761C22.6068 7.99753 22.713 7.98776 22.818 7.99888C22.923 8.00999 23.0248 8.04176 23.1175 8.09237C23.2102 8.14297 23.2919 8.2114 23.358 8.29372C23.4241 8.37604 23.4732 8.47061 23.5026 8.572C24.0349 10.3632 24.1417 12.2539 23.8145 14.0936C23.4873 15.9333 22.735 17.6713 21.6176 19.1694C20.5001 20.6674 19.0484 21.8841 17.3777 22.7227C15.7071 23.5613 13.8637 23.9987 11.9943 24Z" fill="white"/>
<path d="M18.3973 7.20026C18.2922 7.20046 18.1881 7.17985 18.091 7.13962C17.9938 7.09938 17.9056 7.04033 17.8315 6.96586L15.8305 4.96586C15.6847 4.81498 15.604 4.6129 15.6059 4.40314C15.6077 4.19338 15.6919 3.99273 15.8403 3.84441C15.9887 3.69608 16.1894 3.61194 16.3993 3.61012C16.6091 3.6083 16.8113 3.68893 16.9623 3.83466L18.3973 5.26906L22.2336 1.43466C22.3074 1.35825 22.3957 1.29731 22.4934 1.25538C22.591 1.21345 22.6961 1.19138 22.8023 1.19046C22.9086 1.18954 23.014 1.20978 23.1124 1.25C23.2107 1.29023 23.3001 1.34963 23.3752 1.42474C23.4504 1.49986 23.5098 1.58918 23.5501 1.6875C23.5903 1.78581 23.6106 1.89116 23.6096 1.99738C23.6087 2.1036 23.5866 2.20858 23.5447 2.30618C23.5027 2.40379 23.4418 2.49206 23.3653 2.56586L18.9632 6.96586C18.889 7.04033 18.8008 7.09938 18.7037 7.13962C18.6066 7.17985 18.5025 7.20046 18.3973 7.20026Z" fill="white"/>
</svg>
