<svg width="24" height="24" viewBox="0 0 24 24" fill="none" xmlns="http://www.w3.org/2000/svg">
<path fill-rule="evenodd" clip-rule="evenodd" d="M3.71098 19.6179C3.32029 19.8731 2.86336 20.0083 2.39665 20.0068C1.76102 20.0068 1.15142 19.7544 0.701964 19.3051C0.252505 18.8557 1.90735e-06 18.2463 1.90735e-06 17.6109C1.90735e-06 16.9755 0.252505 16.3661 0.701964 15.9167C1.15142 15.4674 1.76102 15.215 2.39665 15.215C2.50512 15.2186 2.61321 15.2295 2.7202 15.2477L6.89596 8.68212C6.57066 8.26721 6.393 7.75575 6.39106 7.22859C6.39106 6.59316 6.64357 5.98375 7.09302 5.53442C7.54248 5.0851 8.15208 4.83268 8.78771 4.83268C9.42334 4.83268 10.0329 5.0851 10.4824 5.53442C10.9319 5.98375 11.1844 6.59316 11.1844 7.22859C11.183 7.58438 11.101 7.93523 10.9447 8.25484L14.1522 11.4614C14.4719 11.3051 14.8229 11.2232 15.1788 11.2218C15.3338 11.2226 15.4885 11.2384 15.6405 11.2689L19.7755 4.01327C19.3979 3.58615 19.1836 3.03921 19.1706 2.46929C19.1576 1.89937 19.3468 1.34324 19.7046 0.899373C20.0624 0.455502 20.5658 0.152527 21.1256 0.0440928C21.6854 -0.0643412 22.2656 0.028762 22.7633 0.306917C23.2611 0.585072 23.6443 1.03033 23.8452 1.56386C24.0461 2.09739 24.0516 2.68477 23.8608 3.22199C23.6701 3.75921 23.2953 4.21161 22.8029 4.4991C22.3105 4.78659 21.7322 4.89061 21.1704 4.79274L17.0162 12.0939C17.3759 12.5204 17.5739 13.0599 17.5754 13.6177C17.5754 14.2531 17.3229 14.8626 16.8735 15.3119C16.424 15.7612 15.8144 16.0136 15.1788 16.0136C14.5431 16.0136 13.9335 15.7612 13.4841 15.3119C13.0346 14.8626 12.7821 14.2531 12.7821 13.6177C12.7835 13.2619 12.8654 12.9111 13.0218 12.5915L9.81428 9.38412C9.32548 9.62918 8.76454 9.68931 8.23488 9.55343L4.1454 15.9841C4.46493 16.3242 4.67779 16.7504 4.7577 17.2101C4.83761 17.6697 4.78106 18.1428 4.59504 18.5707C4.40902 18.9986 4.10168 19.3626 3.71098 19.6179ZM23.9665 22.4027H0V24H23.9665V22.4027Z" fill="white"/>
</svg>
