<svg width="32" height="32" viewBox="0 0 32 32" fill="none" xmlns="http://www.w3.org/2000/svg">
<circle cx="16" cy="16" r="16" fill="#203D68"/>
<path fill-rule="evenodd" clip-rule="evenodd" d="M11 5H13.1429L16 8H13.8571L11 5ZM16 8L16 7.99996L16.0001 8H16ZM16.6906 8L16.3453 7.63746L18.8571 5H21L18.1429 8H16.6906ZM9 11C9 9.89543 9.89543 9 11 9H21C22.1046 9 23 9.89543 23 11V24C23 25.1046 22.1046 26 21 26H11C9.89543 26 9 25.1046 9 24V11ZM14 12C13.4477 12 13 12.4477 13 13V18C13 18.5523 13.4477 19 14 19H18C18.5523 19 19 18.5523 19 18V13C19 12.4477 18.5523 12 18 12H14ZM10.75 21.75C10.75 21.4739 10.9739 21.25 11.25 21.25H20.75C21.0261 21.25 21.25 21.4739 21.25 21.75C21.25 22.0261 21.0261 22.25 20.75 22.25H11.25C10.9739 22.25 10.75 22.0261 10.75 21.75ZM10.75 23.625C10.75 23.3489 10.9739 23.125 11.25 23.125H20.75C21.0261 23.125 21.25 23.3489 21.25 23.625C21.25 23.9011 21.0261 24.125 20.75 24.125H11.25C10.9739 24.125 10.75 23.9011 10.75 23.625Z" fill="white"/>
</svg>
