<svg width="24" height="20" viewBox="0 0 24 20" fill="none" xmlns="http://www.w3.org/2000/svg">
<path d="M16.9999 7.08309H16.1666V5.41642C16.1666 3.11642 14.2999 1.24976 11.9999 1.24976C9.69992 1.24976 7.83325 3.11642 7.83325 5.41642V7.08309H6.99992C6.08325 7.08309 5.33325 7.83309 5.33325 8.74976V17.0831C5.33325 17.9998 6.08325 18.7498 6.99992 18.7498H16.9999C17.9166 18.7498 18.6666 17.9998 18.6666 17.0831V8.74976C18.6666 7.83309 17.9166 7.08309 16.9999 7.08309ZM9.49992 5.41642C9.49992 4.03309 10.6166 2.91642 11.9999 2.91642C13.3833 2.91642 14.4999 4.03309 14.4999 5.41642V7.08309H9.49992V5.41642ZM16.9999 17.0831H6.99992V8.74976H16.9999V17.0831ZM11.9999 14.5831C12.9166 14.5831 13.6666 13.8331 13.6666 12.9164C13.6666 11.9998 12.9166 11.2498 11.9999 11.2498C11.0833 11.2498 10.3333 11.9998 10.3333 12.9164C10.3333 13.8331 11.0833 14.5831 11.9999 14.5831Z" fill="#FD687A"/>
</svg>
