<svg width="24" height="24" viewBox="0 0 24 24" fill="none" xmlns="http://www.w3.org/2000/svg">
<path fill-rule="evenodd" clip-rule="evenodd" d="M7.53571 0C7.23985 0 7 0.223858 7 0.5C7 0.776142 7.23985 1 7.53571 1H16.4643C16.7602 1 17 0.776142 17 0.5C17 0.223858 16.7602 0 16.4643 0H7.53571ZM6.5 2C6.22386 2 6 2.22386 6 2.5C6 2.77614 6.22386 3 6.5 3H17.5C17.7761 3 18 2.77614 18 2.5C18 2.22386 17.7761 2 17.5 2H6.5ZM6 18.5C5.17157 18.5 4.5 17.8284 4.5 17V14.5H1.5V22.5H2H5H19H21H22.5V14.5H19.5V17C19.5 17.8284 18.8284 18.5 18 18.5H6ZM18 15.5V14C18 13.6299 18.2011 13.3067 18.5 13.1338V7C18.5 6.17157 17.8284 5.5 17 5.5H7C6.17157 5.5 5.5 6.17157 5.5 7V13.1338C5.7989 13.3067 6 13.6299 6 14V15.5V17H7.5H16.5H18V15.5ZM4 13V10.6828L1.90439 13H4ZM0.260904 13.3264C0.098831 13.5041 0 13.7405 0 14V23C0 23.5523 0.447715 24 1 24H2H5H19H21H23C23.5523 24 24 23.5523 24 23V14C24 13.6585 23.8288 13.3569 23.5675 13.1765L20 9.23185V7C20 5.34315 18.6569 4 17 4H7C5.34315 4 4 5.34315 4 7V9.19199L0.260904 13.3264ZM22.0596 13L20 10.7227V13H22.0596Z" fill="white"/>
</svg>
