<svg width="24" height="20" viewBox="0 0 24 20" fill="none" xmlns="http://www.w3.org/2000/svg">
<path d="M15.4351 12.0629H14.7124L14.4563 11.8159C15.3528 10.773 15.8925 9.4191 15.8925 7.94625C15.8925 4.66209 13.2304 2 9.94625 2C6.66209 2 4 4.66209 4 7.94625C4 11.2304 6.66209 13.8925 9.94625 13.8925C11.4191 13.8925 12.773 13.3528 13.8159 12.4563L14.0629 12.7124V13.4351L18.6369 18L20 16.6369L15.4351 12.0629V12.0629ZM9.94625 12.0629C7.66838 12.0629 5.82962 10.2241 5.82962 7.94625C5.82962 5.66838 7.66838 3.82962 9.94625 3.82962C12.2241 3.82962 14.0629 5.66838 14.0629 7.94625C14.0629 10.2241 12.2241 12.0629 9.94625 12.0629Z" fill="#FD687A"/>
</svg>
