<svg width="241" height="176" viewBox="0 0 241 176" fill="none" xmlns="http://www.w3.org/2000/svg">
<mask id="mask0_6690_38973" style="mask-type:alpha" maskUnits="userSpaceOnUse" x="0" y="0" width="241" height="176">
<rect width="241" height="176" fill="#D9D9D9"/>
</mask>
<g mask="url(#mask0_6690_38973)">
<rect width="241" height="176" fill="white"/>
<path fill-rule="evenodd" clip-rule="evenodd" d="M84.0173 2L82.8104 2.40672L79.0786 3.60337H79.2855C70.9938 6.21703 56.237 10.9228 55.2999 11.4233C55.2999 11.4233 47.9889 15.6579 20.9507 46.8445C20.9507 46.8445 34.9677 59.5254 47.3397 69.5676C47.5666 69.7614 58.3315 60.7394 58.3315 60.7394C58.3315 60.7394 59.9261 77.085 58.6655 134.078C58.6161 136.322 58.5811 140.207 58.5437 144.349L58.5437 144.349V144.35C58.4952 149.718 58.4429 155.516 58.3504 158.733C58.3504 158.733 63.7013 160.865 106.628 160.865H106.836C119.372 160.865 128.694 160.682 135.627 160.426C151.643 159.834 154.831 158.833 155.095 158.75C155.109 158.746 155.114 158.744 155.114 158.745C155.022 155.539 154.97 149.735 154.921 144.363C154.884 140.215 154.849 136.325 154.799 134.089C153.555 77.2568 155.131 60.8318 155.14 60.7398H155.14C155.221 60.8078 165.893 69.7606 166.131 69.5676C178.503 59.5254 192.527 46.8445 192.527 46.8445C166.216 16.5038 158.541 11.6729 158.144 11.4331L158.145 11.418L158.139 11.4305L158.127 11.4233C157.19 10.9228 142.408 6.21703 134.141 3.60337H134.315L131.248 2.61409L130.119 2.23135C125.111 5.63445 116.73 7.86526 107.235 7.86526C97.5262 7.86526 88.9814 5.53299 84.0173 2Z" fill="black" stroke="#595959" stroke-linejoin="round"/>
<path d="M84.4326 2C84.4326 2 91.4411 7.79619 106.75 7.79619C122.248 7.79619 129.036 2 129.036 2" stroke="#595959" stroke-linejoin="round"/>
<path d="M127.447 9.17578C123.325 11.3187 116.178 13.2907 106.743 13.2907C97.4777 13.2907 90.3558 11.37 86.2275 9.26127" stroke="#595959" stroke-linejoin="round"/>
<path d="M106.727 24.5905C119.25 24.5963 125.574 15.8462 127.884 9.33109L127.884 9.33102C128.652 7.16388 129.181 4.93347 129.465 2.67236L133.539 4.0539C133.331 5.62207 132.33 11.2948 128.977 16.8409C125.232 23.0334 118.564 29.0618 106.728 29.0618C94.5831 29.0618 87.8837 22.7315 84.1956 16.3846C82.3466 13.2027 81.2562 10.0162 80.6283 7.62232C80.3146 6.42636 80.1171 5.43085 79.9982 4.73625C79.9505 4.45775 79.9155 4.22776 79.8907 4.05277L84.0024 2.66714C84.3359 4.9587 84.9194 7.21484 85.7445 9.4024C88.1784 15.9175 94.4482 24.5905 106.727 24.5905ZM106.727 24.5905L106.728 24.0905L106.727 24.5905Z" stroke="#595959"/>
<path d="M134.106 3.73828C134.106 3.73828 131.465 29.539 106.74 29.539C82.0147 29.539 79.3613 3.73828 79.3613 3.73828" stroke="#595959" stroke-linecap="round" stroke-linejoin="round"/>
<path d="M79.0781 3.73811L84.4101 2.02832C84.4101 2.02832 87.4291 24.0675 106.721 24.0675C126.26 24.0675 129.014 2.02832 129.014 2.02832L134.314 3.73811" stroke="#595959" stroke-linejoin="round"/>
<path d="M158.144 11.5527C158.144 11.5527 147.619 35.9116 155.176 60.8745H155.132" stroke="#595959" stroke-linejoin="round"/>
<path d="M55.3105 11.5527C55.3105 11.5527 65.8422 35.9116 58.2791 60.8745H58.3232" stroke="#595959" stroke-linejoin="round"/>
<path d="M135.627 160.561C128.694 160.817 119.372 160.999 106.836 160.999H106.628C63.7013 160.999 58.3504 158.868 58.3504 158.868C58.5143 153.169 58.5521 139.365 58.6655 134.213C59.9261 77.2197 58.3315 60.8741 58.3315 60.8741C58.3315 60.8741 47.5666 69.8961 47.3397 69.7023C34.9677 59.6602 20.9507 46.9792 20.9507 46.9792C47.9889 15.7926 55.2999 11.5581 55.2999 11.5581C56.239 11.0565 71.0565 6.33179 79.3381 3.72151L84.7647 2.01172C84.7647 2.01172 90.5127 7.52294 106.616 7.52294H106.811C122.914 7.52294 128.662 2.01172 128.662 2.01172L134.089 3.72151C142.345 6.33179 157.188 11.0565 158.127 11.5581C158.127 11.5581 165.482 15.7926 192.527 46.9792C192.527 46.9792 178.503 59.6602 166.131 69.7023C165.892 69.8961 155.14 60.8741 155.14 60.8741C155.14 60.8741 153.551 77.2311 154.799 134.224C154.913 139.354 154.951 153.197 155.114 158.879C155.114 158.868 152.436 159.939 135.627 160.561Z" stroke="#595959" stroke-linejoin="round"/>
<path fill-rule="evenodd" clip-rule="evenodd" d="M112.779 16L111.572 16.4067L107.84 17.6034H108.047C99.7551 20.217 84.9983 24.9228 84.0612 25.4233C84.0612 25.4233 76.7501 29.6579 49.7119 60.8445C49.7119 60.8445 63.7289 73.5254 76.101 83.5676C76.3279 83.7614 87.0927 74.7394 87.0927 74.7394C87.0927 74.7394 88.6873 91.085 87.4268 148.078C87.3774 150.322 87.3423 154.207 87.3049 158.349L87.3049 158.349V158.35C87.2565 163.718 87.2041 169.516 87.1116 172.733C87.1116 172.733 92.4626 174.865 135.39 174.865H135.598C148.134 174.865 157.455 174.682 164.388 174.426C180.405 173.834 183.592 172.833 183.857 172.75C183.87 172.746 183.876 172.744 183.876 172.745C183.783 169.539 183.731 163.735 183.683 158.363C183.645 154.215 183.61 150.325 183.561 148.089C182.316 91.2568 183.892 74.8318 183.901 74.7398H183.901C183.982 74.8078 194.654 83.7606 194.893 83.5676C207.265 73.5254 221.288 60.8445 221.288 60.8445C194.977 30.5038 187.302 25.6729 186.905 25.4331L186.906 25.418L186.9 25.4305L186.888 25.4233C185.951 24.9228 171.169 20.217 162.903 17.6034H163.076L160.009 16.6141L158.88 16.2314C153.873 19.6345 145.491 21.8653 135.996 21.8653C126.287 21.8653 117.743 19.533 112.779 16Z" fill="white"/>
<path d="M113.194 16C113.194 16 120.203 21.7962 135.512 21.7962C151.01 21.7962 157.798 16 157.798 16" stroke="#203D68" stroke-linejoin="round"/>
<path d="M156.207 23.1758C152.085 25.3187 144.938 27.2907 135.503 27.2907C126.238 27.2907 119.116 25.37 114.988 23.2613" stroke="#203D68" stroke-linejoin="round"/>
<path d="M162.868 17.7383C162.868 17.7383 160.227 43.539 135.502 43.539C110.776 43.539 108.123 17.7383 108.123 17.7383" stroke="#203D68" stroke-linecap="round" stroke-linejoin="round"/>
<path d="M107.84 17.7381L113.172 16.0283C113.172 16.0283 116.191 38.0675 135.483 38.0675C155.021 38.0675 157.775 16.0283 157.775 16.0283L163.076 17.7381" stroke="#203D68" stroke-linejoin="round"/>
<path d="M186.906 25.5527C186.906 25.5527 176.381 49.9116 183.938 74.8745H183.894" stroke="#203D68" stroke-linejoin="round"/>
<path d="M84.0723 25.5527C84.0723 25.5527 94.6039 49.9116 87.0408 74.8745H87.0849" stroke="#203D68" stroke-linejoin="round"/>
<path d="M164.388 174.561C157.455 174.817 148.134 174.999 135.598 174.999H135.39C92.4626 174.999 87.1116 172.868 87.1116 172.868C87.2755 167.169 87.3133 153.365 87.4268 148.213C88.6873 91.2197 87.0927 74.8741 87.0927 74.8741C87.0927 74.8741 76.3279 83.8961 76.101 83.7023C63.7289 73.6602 49.7119 60.9792 49.7119 60.9792C76.7501 29.7926 84.0612 25.5581 84.0612 25.5581C85.0003 25.0565 99.8177 20.3318 108.099 17.7215L113.526 16.0117C113.526 16.0117 119.274 21.5229 135.377 21.5229H135.572C151.676 21.5229 157.424 16.0117 157.424 16.0117L162.85 17.7215C171.107 20.3318 185.949 25.0565 186.888 25.5581C186.888 25.5581 194.244 29.7926 221.288 60.9792C221.288 60.9792 207.265 73.6602 194.893 83.7023C194.653 83.8961 183.901 74.8741 183.901 74.8741C183.901 74.8741 182.313 91.2311 183.561 148.224C183.674 153.354 183.712 167.197 183.876 172.879C183.876 172.868 181.197 173.939 164.388 174.561Z" stroke="#203D68" stroke-linejoin="round"/>
</g>
</svg>
