<svg width="14" height="14" viewBox="0 0 14 14" fill="none" xmlns="http://www.w3.org/2000/svg">
<path fill-rule="evenodd" clip-rule="evenodd" d="M2.01987 0.346555C1.5578 -0.115518 0.808628 -0.115518 0.346555 0.346555C-0.115518 0.808628 -0.115518 1.5578 0.346555 2.01987L5.32676 7.00007L0.346709 11.9801C-0.115363 12.4422 -0.115364 13.1914 0.346709 13.6534C0.808782 14.1155 1.55795 14.1155 2.02002 13.6534L7.00007 8.67339L11.9801 13.6534C12.4422 14.1155 13.1914 14.1155 13.6534 13.6534C14.1155 13.1914 14.1155 12.4422 13.6534 11.9801L8.67339 7.00007L13.6536 2.01987C14.1157 1.5578 14.1157 0.808628 13.6536 0.346555C13.1915 -0.115518 12.4423 -0.115518 11.9803 0.346555L7.00007 5.32676L2.01987 0.346555Z" fill="#7A7A7A"/>
</svg>
