<svg width="70" height="69" viewBox="0 0 70 69" fill="none" xmlns="http://www.w3.org/2000/svg">
<path d="M50.7984 23.8139C49.8664 20.0886 47.7167 16.7816 44.6904 14.4177C41.6642 12.0539 37.935 10.7688 34.095 10.7666C30.255 10.7644 26.5243 12.0451 23.4953 14.4054C20.4663 16.7657 18.3127 20.0703 17.3765 23.7944C12.9601 24.2089 8.87315 26.3088 5.96451 29.6578C3.05588 33.0068 1.54915 37.3476 1.7573 41.7785C1.96545 46.2093 3.87249 50.3898 7.08228 53.4513C10.2921 56.5129 14.5579 58.2204 18.9937 58.219H25.4624C26.0343 58.219 26.5827 57.9918 26.9871 57.5874C27.3915 57.1831 27.6187 56.6346 27.6187 56.0627C27.6187 55.4909 27.3915 54.9424 26.9871 54.538C26.5827 54.1337 26.0343 53.9065 25.4624 53.9065H18.9937C17.2947 53.9114 15.6114 53.5817 14.0398 52.9361C12.4683 52.2905 11.0393 51.3417 9.83442 50.1439C7.4011 47.7247 6.02844 44.438 6.01844 41.0067C6.00843 37.5755 7.36189 34.2808 9.78106 31.8475C12.2002 29.4141 15.487 28.0415 18.9182 28.0315C19.4715 28.0731 20.0205 27.9078 20.4588 27.5675C20.897 27.2273 21.1933 26.7364 21.2901 26.19C21.7291 23.1111 23.2643 20.2938 25.6136 18.2558C27.9629 16.2177 30.9687 15.0956 34.0788 15.0956C37.1889 15.0956 40.1947 16.2177 42.544 18.2558C44.8933 20.2938 46.4284 23.1111 46.8675 26.19C46.9803 26.7174 47.2726 27.1893 47.6946 27.5251C48.1165 27.8609 48.6419 28.0399 49.1812 28.0315C52.6124 28.0315 55.9031 29.3945 58.3294 31.8208C60.7556 34.247 62.1187 37.5377 62.1187 40.969C62.1187 44.4002 60.7556 47.6909 58.3294 50.1172C55.9031 52.5434 52.6124 53.9065 49.1812 53.9065H42.7124C42.1405 53.9065 41.5921 54.1337 41.1877 54.538C40.7833 54.9424 40.5562 55.4909 40.5562 56.0627C40.5562 56.6346 40.7833 57.1831 41.1877 57.5874C41.5921 57.9918 42.1405 58.219 42.7124 58.219H49.1812C53.5845 58.1729 57.8035 56.4445 60.9736 53.3881C64.1437 50.3317 66.0249 46.1786 66.2316 41.7799C66.4384 37.3811 64.9551 33.0699 62.0856 29.7296C59.2162 26.3892 55.1779 24.2728 50.7984 23.8139Z" fill="#D5E3F5"/>
<path d="M43.3441 42.4932C43.7507 42.886 44.2954 43.1034 44.8608 43.0985C45.4261 43.0935 45.9669 42.8668 46.3667 42.467C46.7665 42.0672 46.9933 41.5264 46.9982 40.961C47.0031 40.3957 46.7858 39.851 46.393 39.4443L35.6117 28.6631C35.2074 28.2588 34.659 28.0317 34.0873 28.0317C33.5155 28.0317 32.9672 28.2588 32.5628 28.6631L21.7816 39.4443C21.3888 39.851 21.1714 40.3957 21.1764 40.961C21.1813 41.5264 21.408 42.0672 21.8078 42.467C22.2076 42.8668 22.7484 43.0935 23.3138 43.0985C23.8791 43.1034 24.4238 42.886 24.8305 42.4932L31.931 35.3927V62.5313C31.931 63.1031 32.1582 63.6516 32.5626 64.056C32.9669 64.4604 33.5154 64.6875 34.0873 64.6875C34.6591 64.6875 35.2076 64.4604 35.612 64.056C36.0163 63.6516 36.2435 63.1031 36.2435 62.5313V35.3927L43.3441 42.4932Z" fill="#D5E3F5"/>
</svg>
