<svg width="24" height="20" viewBox="0 0 24 20" fill="none" xmlns="http://www.w3.org/2000/svg">
<path d="M12 3.89976C13.16 3.89976 14.1 4.83976 14.1 5.99976C14.1 7.15976 13.16 8.09976 12 8.09976C10.84 8.09976 9.9 7.15976 9.9 5.99976C9.9 4.83976 10.84 3.89976 12 3.89976ZM12 12.8998C14.97 12.8998 18.1 14.3598 18.1 14.9998V16.0998H5.9V14.9998C5.9 14.3598 9.03 12.8998 12 12.8998ZM12 1.99976C9.79 1.99976 8 3.78976 8 5.99976C8 8.20976 9.79 9.99976 12 9.99976C14.21 9.99976 16 8.20976 16 5.99976C16 3.78976 14.21 1.99976 12 1.99976ZM12 10.9998C9.33 10.9998 4 12.3398 4 14.9998V17.9998H20V14.9998C20 12.3398 14.67 10.9998 12 10.9998Z" fill="#FD687A"/>
</svg>
